<svg id="visual" viewBox="0 0 900 600" width="900" height="600" xmlns="http://www.w3.org/2000/svg" xmlns:xlink="http://www.w3.org/1999/xlink" version="1.1"><rect x="0" y="0" width="900" height="600" fill="#002233"></rect><path d="M0 498L21.5 501.5C43 505 86 512 128.8 512.8C171.7 513.7 214.3 508.3 257.2 487.7C300 467 343 431 385.8 421.8C428.7 412.7 471.3 430.3 514.2 451.7C557 473 600 498 642.8 491.2C685.7 484.3 728.3 445.7 771.2 431.7C814 417.7 857 428.3 878.5 433.7L900 439L900 601L878.5 601C857 601 814 601 771.2 601C728.3 601 685.7 601 642.8 601C600 601 557 601 514.2 601C471.3 601 428.7 601 385.8 601C343 601 300 601 257.2 601C214.3 601 171.7 601 128.8 601C86 601 43 601 21.5 601L0 601Z" fill="#0066FF" stroke-linecap="round" stroke-linejoin="miter"></path></svg>